<svg viewBox="0 0 34 24" fill="none" xmlns="http://www.w3.org/2000/svg">
<rect x="2" y="1" width="30" height="22" rx="4" fill="#1F72CD"/>
<path fill-rule="evenodd" clip-rule="evenodd" d="M6.09517 8.5L2.91406 15.7467H6.7223L7.19441 14.5913H8.27355L8.74566 15.7467H12.9375V14.8649L13.311 15.7467H15.4793L15.8528 14.8462V15.7467H24.5706L25.6307 14.6213L26.6232 15.7467L31.1009 15.7561L27.9097 12.1436L31.1009 8.5H26.6927L25.6608 9.60463L24.6995 8.5H15.2156L14.4013 10.3704L13.5678 8.5H9.7675V9.35186L9.34474 8.5H6.09517ZM6.83202 9.52881H8.68833L10.7984 14.4429V9.52881H12.8319L14.4616 13.0522L15.9636 9.52881H17.987V14.7288H16.7558L16.7458 10.6541L14.9508 14.7288H13.8495L12.0445 10.6541V14.7288H9.51176L9.03159 13.563H6.43741L5.95824 14.7278H4.6012L6.83202 9.52881ZM24.1196 9.52881H19.1134V14.7258H24.0421L25.6306 13.0034L27.1618 14.7258H28.7624L26.436 12.1423L28.7624 9.52881H27.2312L25.6507 11.2314L24.1196 9.52881ZM7.73505 10.4087L6.88037 12.4854H8.58873L7.73505 10.4087ZM20.3497 11.5551V10.6059V10.605H23.4734L24.8364 12.1231L23.413 13.6495H20.3497V12.6132H23.0808V11.5551H20.3497Z" fill="white"/>
</svg>