<svg viewBox="0 0 34 24">
<style type="text/css">
	.st0{fill:#AAAAAA;}
	.st1{fill:#666666;}
	.st2{fill:#FFFFFF;}
</style>
<path class="st0" d="M6,1h22c2.2,0,4,1.8,4,4v14c0,2.2-1.8,4-4,4H6c-2.2,0-4-1.8-4-4V5C2,2.8,3.8,1,6,1z"/>
<rect class="st1" x="2.1" y="5" width="29.9" height="3.5"/>
<rect class="st2" x="3.9" y="11.5" width="26.3" height="3.5"/>
<circle class="st1" cx="22.9" cy="12.8" r="7.9"/>
<path class="st2" d="M19.1,15.8H18v-5.1l-1.6,0.5v-0.9l2.4-0.9H19v6.3H19.1z"/>
<path class="st2" d="M21.5,12.3h0.6c0.4,0,0.6-0.1,0.7-0.2c0.2-0.1,0.2-0.4,0.2-0.7c0-0.2-0.1-0.5-0.2-0.7
	c-0.1-0.1-0.4-0.2-0.7-0.2c-0.2,0-0.5,0.1-0.7,0.2s-0.2,0.4-0.2,0.6h-1.1c0-0.4,0.1-0.6,0.2-0.9c0.1-0.2,0.4-0.5,0.7-0.6
	c0.4-0.1,0.7-0.2,1.1-0.2c0.6,0,1.1,0.1,1.5,0.5c0.4,0.4,0.5,0.7,0.5,1.3c0,0.2-0.1,0.6-0.2,0.9s-0.4,0.5-0.7,0.6
	c0.4,0.1,0.6,0.4,0.9,0.6c0.1,0.2,0.2,0.6,0.2,1c0,0.6-0.2,1-0.6,1.3c-0.4,0.4-0.9,0.5-1.6,0.5c-0.6,0-1.1-0.1-1.5-0.5
	C20.2,15.4,20,15,20,14.4h1.1c0,0.2,0.1,0.5,0.2,0.7c0.2,0.1,0.5,0.2,0.7,0.2c0.4,0,0.6-0.1,0.7-0.2C23,15,23,14.6,23,14.4
	c0-0.4-0.1-0.6-0.2-0.7c-0.1-0.1-0.2-0.5-0.6-0.5h-0.6V12.3z"/>
<path class="st2" d="M25.3,12.8l0.4-3.2h3.4v1h-2.6l-0.1,1.5c0.2-0.1,0.6-0.2,1-0.2c0.6,0,1.1,0.2,1.5,0.6c0.4,0.4,0.5,0.9,0.5,1.6
	c0,0.6-0.2,1.2-0.6,1.6c-0.4,0.4-0.9,0.6-1.6,0.6c-0.6,0-1.1-0.1-1.5-0.5c-0.4-0.4-0.6-0.7-0.6-1.3h1c0,0.4,0.1,0.5,0.4,0.7
	c0.1,0.1,0.4,0.2,0.7,0.2s0.6-0.1,0.7-0.4c0.1-0.2,0.2-0.6,0.2-1c0-0.4-0.1-0.7-0.2-1c-0.2-0.2-0.5-0.4-0.9-0.4
	c-0.2,0-0.4,0-0.5,0.1c-0.1,0-0.2,0.1-0.5,0.2L25.3,12.8z"/>
</svg>
