<svg viewBox="0 0 34 24" fill="none" xmlns="http://www.w3.org/2000/svg">
<rect x="2" y="1" width="30" height="22" rx="4" fill="#333435"/>
<g opacity="0.3">
<path d="M25.2097 17.5764H22.7265C22.1885 17.5764 21.8988 17.34 21.8988 16.7882C21.8988 16.2365 22.1885 16 22.7265 16H25.2097C25.7477 16 26.0374 16.2365 26.0374 16.7882C26.0374 17.34 25.7477 17.5764 25.2097 17.5764ZM20.2434 17.5764H17.7603C17.2223 17.5764 16.9326 17.34 16.9326 16.7882C16.9326 16.2365 17.2223 16 17.7603 16H20.2434C20.7814 16 21.0711 16.2365 21.0711 16.7882C21.0711 17.34 20.7814 17.5764 20.2434 17.5764ZM15.2771 17.5764H12.794C12.256 17.5764 11.9663 17.34 11.9663 16.7882C11.9663 16.2365 12.256 16 12.794 16H15.2771C15.8151 16 16.1048 16.2365 16.1048 16.7882C16.1048 17.34 15.8151 17.5764 15.2771 17.5764ZM10.3109 17.5764H7.82771C7.2897 17.5764 7 17.34 7 16.7882C7 16.2365 7.2897 16 7.82771 16H10.3109C10.8489 16 11.1386 16.2365 11.1386 16.7882C11.1386 17.34 10.8489 17.5764 10.3109 17.5764Z" fill="#646566"/>
<path d="M25.2097 17.5764H22.7265C22.1885 17.5764 21.8988 17.34 21.8988 16.7882C21.8988 16.2365 22.1885 16 22.7265 16H25.2097C25.7477 16 26.0374 16.2365 26.0374 16.7882C26.0374 17.34 25.7477 17.5764 25.2097 17.5764ZM20.2434 17.5764H17.7603C17.2223 17.5764 16.9326 17.34 16.9326 16.7882C16.9326 16.2365 17.2223 16 17.7603 16H20.2434C20.7814 16 21.0711 16.2365 21.0711 16.7882C21.0711 17.34 20.7814 17.5764 20.2434 17.5764ZM15.2771 17.5764H12.794C12.256 17.5764 11.9663 17.34 11.9663 16.7882C11.9663 16.2365 12.256 16 12.794 16H15.2771C15.8151 16 16.1048 16.2365 16.1048 16.7882C16.1048 17.34 15.8151 17.5764 15.2771 17.5764ZM10.3109 17.5764H7.82771C7.2897 17.5764 7 17.34 7 16.7882C7 16.2365 7.2897 16 7.82771 16H10.3109C10.8489 16 11.1386 16.2365 11.1386 16.7882C11.1386 17.34 10.8489 17.5764 10.3109 17.5764Z" fill="#646566"/>
</g>
<rect x="7" y="7" width="9" height="5" rx="2" fill="black"/>
</svg>
