<svg viewBox="0 0 34 24" fill="none" xmlns="http://www.w3.org/2000/svg">
<rect x="2.5" y="1.5" width="29" height="21" rx="3.5" fill="white" stroke="#D9D9D9"/>
<path fill-rule="evenodd" clip-rule="evenodd" d="M15.8387 19.2998H18.4348C22.4872 19.2998 25.7165 16.0848 25.8432 12.1133V12.0503C25.7798 8.01572 22.4872 4.73766 18.4348 4.8007H15.5221C11.6597 4.92678 8.62034 8.20484 8.74698 12.1133C8.74698 16.0217 11.9129 19.2368 15.8387 19.2998ZM10.0134 12.0502C10.0134 8.77216 12.7361 6.06146 16.0287 6.06146C19.3213 6.06146 22.044 8.77216 22.044 12.0502C22.044 15.3283 19.3213 18.039 16.0287 18.039C12.7361 18.039 10.0134 15.3283 10.0134 12.0502ZM16.9785 16.0846V8.07861C19.1947 8.64597 20.5877 10.8524 20.0178 13.0587C19.6379 14.5717 18.4982 15.7064 16.9785 16.0846ZM12.1029 11.0415C11.5331 13.2479 12.8628 15.5173 15.0789 16.0846V8.07861C13.6226 8.45685 12.4828 9.59156 12.1029 11.0415Z" fill="#0079BE"/>
</svg>