<svg viewBox="0 0 34 24" fill="none" xmlns="http://www.w3.org/2000/svg">
<rect x="2.5" y="1.5" width="29" height="21" rx="3.5" fill="white" stroke="#D9D9D9"/>
<path d="M14.5332 22.0663L30.9999 17.083V19.0663C30.9999 20.7232 29.6567 22.0663 27.9999 22.0663H14.5332Z" fill="#FD6020"/>
<path fill-rule="evenodd" clip-rule="evenodd" d="M27.8745 10.0296C28.7805 10.0296 29.2787 10.4487 29.2787 11.2403C29.324 11.8456 28.9164 12.3578 28.3728 12.4509L29.5958 14.1738H28.6446L27.6028 12.4975H27.5122V14.1738H26.7421V10.0296H27.8745ZM27.5122 11.9389H27.7387C28.2369 11.9389 28.4634 11.7061 28.4634 11.2871C28.4634 10.9145 28.2369 10.6817 27.7387 10.6817H27.5122V11.9389ZM24.0696 14.1729H26.2438V13.4744H24.8396V12.3569H26.1985V11.6585H24.8396V10.7272H26.2438V10.0287H24.0696V14.1729ZM21.8049 12.8225L20.763 10.0287H19.9477L21.6237 14.266H22.0313L23.7073 10.0287H22.892L21.8049 12.8225ZM12.6098 12.1239C12.6098 13.288 13.5157 14.2658 14.6481 14.2658C15.0105 14.2658 15.3275 14.1727 15.6446 14.033V13.1017C15.4181 13.3811 15.101 13.5674 14.7387 13.5674C14.0139 13.5674 13.4251 13.0086 13.4251 12.2636V12.1704C13.3798 11.4254 13.9686 10.7735 14.6934 10.727C15.0558 10.727 15.4181 10.9132 15.6446 11.1926V10.2614C15.3728 10.0751 15.0105 10.0285 14.6934 10.0285C13.5157 9.93541 12.6098 10.9132 12.6098 12.1239ZM11.2055 11.6118C10.7526 11.4256 10.6167 11.3325 10.6167 11.0996C10.662 10.8203 10.8885 10.5874 11.1602 10.634C11.3867 10.634 11.6132 10.7737 11.7944 10.96L12.2021 10.4012C11.885 10.1218 11.4773 9.93556 11.0696 9.93556C10.4355 9.889 9.89195 10.4012 9.84665 11.0531V11.0996C9.84665 11.6584 10.0731 11.9843 10.7979 12.2172C10.9791 12.2637 11.1602 12.3569 11.3414 12.45C11.4773 12.5431 11.5679 12.6828 11.5679 12.8691C11.5679 13.195 11.2961 13.4744 11.0244 13.4744H10.9791C10.6167 13.4744 10.2996 13.2416 10.1637 12.9156L9.66547 13.4278C9.93725 13.94 10.4808 14.2194 11.0244 14.2194C11.7491 14.266 12.3379 13.7072 12.3832 12.9622V12.8225C12.3379 12.2637 12.1115 11.9843 11.2055 11.6118ZM8.57838 14.1729H9.34841V10.0287H8.57838V14.1729ZM5 10.0296H6.1324H6.35888C7.44599 10.0762 8.30661 11.0075 8.26132 12.125C8.26132 12.7303 7.98954 13.2891 7.53658 13.7082C7.12892 14.0341 6.63066 14.2203 6.1324 14.1738H5V10.0296ZM5.99653 13.4751C6.3589 13.5216 6.76656 13.3819 7.03834 13.1491C7.31012 12.8697 7.44601 12.4972 7.44601 12.0782C7.44601 11.7057 7.31012 11.3332 7.03834 11.0538C6.76656 10.821 6.3589 10.6813 5.99653 10.7278H5.77005V13.4751H5.99653Z" fill="black"/>
<path fill-rule="evenodd" clip-rule="evenodd" d="M17.9547 9.93262C16.8223 9.93262 15.8711 10.8639 15.8711 12.0745C15.8711 13.2386 16.777 14.2164 17.9547 14.263C19.1324 14.3096 20.0383 13.3317 20.0836 12.1211C20.0383 10.9104 19.1324 9.93262 17.9547 9.93262V9.93262Z" fill="#FD6020"/>
</svg>