<svg viewBox="0 0 34 24" fill="none" xmlns="http://www.w3.org/2000/svg">
<rect x="2.5" y="1.5" width="29" height="21" rx="3.5" fill="white" stroke="#D9D9D9"/>
<path d="M21.9818 11.9542C22.5131 11.9658 23.0473 11.9308 23.5765 11.9724C24.1123 12.0724 24.2415 12.8836 23.7654 13.1493C23.4406 13.3243 23.0547 13.2145 22.7025 13.2454H21.9818V11.9542ZM23.8837 10.4928C24.0017 10.9095 23.6001 11.2835 23.1988 11.2262H21.9818C21.9903 10.8333 21.9651 10.4068 21.9942 10.0346C22.4817 10.0484 22.9737 10.0066 23.4585 10.0564C23.6667 10.1088 23.841 10.28 23.8837 10.4928ZM26.8126 4.31448C26.8352 5.11012 26.8158 5.94781 26.8223 6.75959C26.8208 10.06 26.8255 13.3603 26.8198 16.6609C26.7984 17.8978 25.7022 18.9726 24.4739 18.9972C23.2443 19.0022 22.0146 18.998 20.7849 18.9994V14.0099C22.1247 14.003 23.4652 14.0239 24.8045 13.9994C25.4258 13.9604 26.1063 13.5505 26.1352 12.8668C26.2084 12.1801 25.561 11.7051 24.9463 11.6301C24.7101 11.624 24.717 11.5613 24.9463 11.5339C25.5326 11.4072 25.9929 10.8004 25.8204 10.1928C25.6735 9.55368 24.9671 9.30631 24.3795 9.30754C23.1815 9.2994 21.9832 9.30641 20.7852 9.30404C20.7929 8.37256 20.769 7.44008 20.798 6.50928C20.893 5.2947 22.0167 4.29307 23.2278 4.3148C24.4229 4.31462 25.6178 4.31462 26.8126 4.31457V4.31448Z" fill="url(#paint0_linear_9709_21214)"/>
<path d="M7.24671 6.6353C7.27731 5.40035 8.37818 4.33439 9.60494 4.31635C10.8299 4.31257 12.0551 4.3158 13.2801 4.31471C13.2767 8.44657 13.2867 12.5789 13.275 16.7105C13.2279 17.9305 12.139 18.9761 10.9256 18.9977C9.69828 19.0022 8.47083 18.9983 7.24348 18.9996V13.8418C8.43565 14.1235 9.68582 14.2434 10.902 14.0566C11.629 13.9396 12.4244 13.5826 12.6706 12.8283C12.8517 12.1832 12.7497 11.5042 12.7767 10.842V9.30427H10.6719C10.6624 10.3213 10.6913 11.3401 10.6567 12.3559C10.5999 12.9803 9.9816 13.377 9.39272 13.3558C8.66241 13.3636 7.2152 12.8266 7.2152 12.8266C7.21157 10.9211 7.23639 8.53468 7.24671 6.63548V6.6353Z" fill="url(#paint1_linear_9709_21214)"/>
<path d="M14.0654 9.92476C13.9546 9.94826 14.0431 9.54738 14.0148 9.3953C14.0223 8.43377 13.999 7.47119 14.0276 6.51034C14.1223 5.29063 15.2547 4.2865 16.4707 4.31505H20.0517C20.0483 8.44691 20.0582 12.5792 20.0466 16.7109C19.9994 17.9308 18.9104 18.9764 17.697 18.998C16.4696 19.0027 15.2422 18.9988 14.0147 18.9999V13.349C14.853 14.0368 15.9923 14.1438 17.0367 14.1457C17.824 14.1454 18.6067 14.024 19.3713 13.8424V12.8072C18.5097 13.2366 17.4968 13.5094 16.5416 13.2627C15.8753 13.0968 15.3916 12.4529 15.4024 11.7653C15.3252 11.0502 15.7444 10.2952 16.4471 10.0827C17.3196 9.80951 18.2704 10.0184 19.0883 10.3735C19.2635 10.4653 19.4413 10.5791 19.3713 10.2862V9.47245C18.0035 9.14703 16.5479 9.02729 15.1737 9.3813C14.776 9.4935 14.3885 9.66367 14.0654 9.92485V9.92476Z" fill="url(#paint2_linear_9709_21214)"/>
<defs>
<linearGradient id="paint0_linear_9709_21214" x1="20.7437" y1="11.343" x2="26.7843" y2="11.343" gradientUnits="userSpaceOnUse">
<stop stop-color="#58B03A"/>
<stop offset="1" stop-color="#55B330"/>
</linearGradient>
<linearGradient id="paint1_linear_9709_21214" x1="7.11505" y1="11.7978" x2="13.1811" y2="11.7978" gradientUnits="userSpaceOnUse">
<stop stop-color="#0F6EB6"/>
<stop offset="1" stop-color="#006DBA"/>
</linearGradient>
<linearGradient id="paint2_linear_9709_21214" x1="14.0059" y1="11.4858" x2="20.0505" y2="11.4858" gradientUnits="userSpaceOnUse">
<stop stop-color="#DE0D3D"/>
<stop offset="1" stop-color="#E30138"/>
</linearGradient>
</defs>
</svg>