<svg viewBox="0 0 34 24" fill="none" xmlns="http://www.w3.org/2000/svg">
<rect x="2.5" y="1.5" width="29" height="21" rx="3.5" fill="#1BA559"/>
<rect x="2.5" y="1.5" width="29" height="21" rx="3.5" fill="url(#paint0_linear_9709_21299)"/>
<rect x="2.5" y="1.5" width="29" height="21" rx="3.5" fill="url(#paint1_linear_9709_21299)"/>
<rect x="2.5" y="1.5" width="29" height="21" rx="3.5" stroke="#D9D9D9"/>
<path d="M17.2695 11.9506C17.1028 11.9401 16.9277 11.9191 16.7534 11.9191C15.4805 11.9146 14.2068 11.9154 12.9339 11.9131C12.8192 11.9131 12.6923 11.9356 12.5944 11.8944C12.5141 11.8607 12.4354 11.7528 12.4201 11.6667C12.4117 11.6203 12.5363 11.505 12.6059 11.5005C12.9102 11.481 13.2167 11.4907 13.5218 11.4907C14.6548 11.4907 15.7878 11.4907 16.9209 11.4885C17.0332 11.4885 17.1456 11.4772 17.2955 11.4698C17.3574 10.8736 17.2045 10.3239 16.9912 9.79972C16.3268 8.16936 15.0019 7.36804 13.3008 7.0932C12.1556 6.90822 11.0264 6.99584 9.92315 7.38077C8.19303 7.98588 7.06611 9.52562 7.00495 11.3305C6.96596 12.483 7.14868 13.5644 7.8574 14.5148C8.57758 15.4816 9.58293 16.0081 10.7565 16.2313C12.0791 16.4829 13.3895 16.4282 14.6433 15.9002C16.2649 15.2172 17.0975 13.9613 17.3092 12.2756C17.3169 12.2142 17.3138 12.1505 17.3092 12.0891C17.3062 12.0532 17.2894 12.0187 17.2695 11.9506Z" fill="white"/>
<path d="M21.258 11.4862C22.1747 11.4862 23.0913 11.4952 24.0072 11.4817C24.3612 11.4765 24.7221 11.4563 25.0661 11.3821C26.0485 11.1702 26.7496 10.1495 26.6296 9.14892C26.5034 8.09672 25.6709 7.32011 24.6219 7.30888C22.5095 7.28641 20.3972 7.28342 18.2855 7.26095C17.9285 7.2572 17.7664 7.33509 17.7779 7.73875C17.81 8.84787 17.8077 9.95848 17.7855 11.0676C17.7787 11.4263 17.9056 11.5035 18.2427 11.4967C19.2481 11.478 20.2534 11.49 21.2595 11.49V11.487L21.258 11.4862Z" fill="white"/>
<path d="M17.8016 16.0613C18.0019 16.0747 18.1632 16.0942 18.3253 16.0942C20.2213 16.0927 22.1173 16.0942 24.0134 16.08C24.378 16.077 24.7534 16.056 25.1051 15.9706C26.0868 15.7317 26.7427 14.7582 26.6135 13.7921C26.4705 12.7279 25.6563 11.976 24.5975 11.9648C22.4858 11.9416 20.3735 11.9408 18.2618 11.9131C17.9017 11.9086 17.7787 12.006 17.7878 12.3737C17.8131 13.4701 17.8001 14.5672 17.8016 15.6643C17.8016 15.7864 17.8016 15.9085 17.8016 16.0613Z" fill="white"/>
<defs>
<linearGradient id="paint0_linear_9709_21299" x1="17" y1="1" x2="17" y2="23" gradientUnits="userSpaceOnUse">
<stop stop-color="#098EC3" stop-opacity="0"/>
<stop offset="1" stop-color="#098EC3"/>
</linearGradient>
<linearGradient id="paint1_linear_9709_21299" x1="2" y1="12" x2="32" y2="12" gradientUnits="userSpaceOnUse">
<stop stop-color="#002A63" stop-opacity="0"/>
<stop offset="1" stop-color="#002962"/>
</linearGradient>
</defs>
</svg>
