<svg viewBox="0 0 34 25" fill="none" xmlns="http://www.w3.org/2000/svg">
<rect opacity="0.2" x="2" y="2" width="30" height="22" rx="4" fill="#F94348"/>
<g opacity="0.3">
<path d="M25.2097 18.5764H22.7265C22.1885 18.5764 21.8988 18.34 21.8988 17.7882C21.8988 17.2365 22.1885 17 22.7265 17H25.2097C25.7477 17 26.0374 17.2365 26.0374 17.7882C26.0374 18.34 25.7477 18.5764 25.2097 18.5764ZM20.2434 18.5764H17.7603C17.2223 18.5764 16.9326 18.34 16.9326 17.7882C16.9326 17.2365 17.2223 17 17.7603 17H20.2434C20.7814 17 21.0711 17.2365 21.0711 17.7882C21.0711 18.34 20.7814 18.5764 20.2434 18.5764ZM15.2771 18.5764H12.794C12.256 18.5764 11.9663 18.34 11.9663 17.7882C11.9663 17.2365 12.256 17 12.794 17H15.2771C15.8151 17 16.1048 17.2365 16.1048 17.7882C16.1048 18.34 15.8151 18.5764 15.2771 18.5764ZM10.3109 18.5764H7.82771C7.2897 18.5764 7 18.34 7 17.7882C7 17.2365 7.2897 17 7.82771 17H10.3109C10.8489 17 11.1386 17.2365 11.1386 17.7882C11.1386 18.34 10.8489 18.5764 10.3109 18.5764Z" fill="#F94348"/>
<path d="M25.2097 18.5764H22.7265C22.1885 18.5764 21.8988 18.34 21.8988 17.7882C21.8988 17.2365 22.1885 17 22.7265 17H25.2097C25.7477 17 26.0374 17.2365 26.0374 17.7882C26.0374 18.34 25.7477 18.5764 25.2097 18.5764ZM20.2434 18.5764H17.7603C17.2223 18.5764 16.9326 18.34 16.9326 17.7882C16.9326 17.2365 17.2223 17 17.7603 17H20.2434C20.7814 17 21.0711 17.2365 21.0711 17.7882C21.0711 18.34 20.7814 18.5764 20.2434 18.5764ZM15.2771 18.5764H12.794C12.256 18.5764 11.9663 18.34 11.9663 17.7882C11.9663 17.2365 12.256 17 12.794 17H15.2771C15.8151 17 16.1048 17.2365 16.1048 17.7882C16.1048 18.34 15.8151 18.5764 15.2771 18.5764ZM10.3109 18.5764H7.82771C7.2897 18.5764 7 18.34 7 17.7882C7 17.2365 7.2897 17 7.82771 17H10.3109C10.8489 17 11.1386 17.2365 11.1386 17.7882C11.1386 18.34 10.8489 18.5764 10.3109 18.5764Z" fill="#F94348"/>
</g>
<rect x="7" y="8" width="9" height="5" rx="2" fill="#F94348"/>
<path fill-rule="evenodd" clip-rule="evenodd" d="M28.4999 1.37504C26.2257 1.37504 24.3749 3.22579 24.3749 5.50004C24.3749 7.77475 26.2257 9.62504 28.4999 9.62504C30.7746 9.62504 32.6249 7.77475 32.6249 5.50004C32.6249 3.22579 30.7746 1.37504 28.4999 1.37504ZM28.4999 10.5417C25.7201 10.5417 23.4583 8.27983 23.4583 5.50004C23.4583 2.72025 25.7201 0.458374 28.4999 0.458374C31.2797 0.458374 33.5416 2.72025 33.5416 5.50004C33.5416 8.27983 31.2797 10.5417 28.4999 10.5417ZM28.4999 5.95837C28.2469 5.95837 28.0416 5.75304 28.0416 5.50004V3.66671C28.0416 3.41371 28.2469 3.20837 28.4999 3.20837C28.7529 3.20837 28.9583 3.41371 28.9583 3.66671V5.50004C28.9583 5.75304 28.7529 5.95837 28.4999 5.95837ZM28.1745 7.65512C28.2616 7.74221 28.3762 7.79262 28.4999 7.79262C28.6237 7.79262 28.7383 7.74221 28.8253 7.65512C28.9124 7.57262 28.9583 7.45804 28.9583 7.33429C28.9583 7.27471 28.9491 7.21512 28.9216 7.16012C28.8987 7.10054 28.8666 7.05012 28.8253 7.00887C28.697 6.88054 28.4908 6.83929 28.3258 6.90758C28.2662 6.93096 28.2203 6.96762 28.1745 7.00887C28.1333 7.05012 28.1012 7.10054 28.0783 7.16012C28.0553 7.21512 28.0416 7.27471 28.0416 7.33429C28.0416 7.45804 28.0874 7.57262 28.1745 7.65512Z" fill="#F94348"/>
</svg>
